<svg width="114" height="52" viewBox="0 0 114 52" fill="none" xmlns="http://www.w3.org/2000/svg">
<path d="M72.0275 9.12305C70.5478 10.5357 68.9711 12.8984 68.6557 15.6994C68.3161 15.4802 67.9765 15.2366 67.6611 14.9687C67.7824 13.4586 70.1112 9.75633 72.0275 9.12305Z" fill="#006455"/>
<path d="M109.65 13.6529C105.574 7.80722 98.5154 3.61784 88.1573 3.61784C87.8177 2.08336 86.532 0.91423 84.931 0.743732C80.322 0.256595 68.8238 0.646305 67.8777 0.743732C66.1797 0.91423 64.6757 2.30257 64.6029 4.42162C64.5544 6.2971 64.3604 7.46623 63.7782 8.22129C63.196 8.952 62.8079 9.43913 62.541 9.80449C62.8806 11.2659 63.4628 12.5812 64.2633 13.7503C63.7782 14.9925 63.4386 16.3565 63.2688 17.8423C62.8079 21.9829 63.8267 26.7812 67.053 30.9706L67.5381 30.5809C69.2604 33.0409 71.0313 35.1843 72.1229 36.524C69.8669 36.938 68.557 38.0097 69.2362 41.8825C69.3575 42.5645 69.3575 43.8797 71.2011 44.5617C71.6134 45.0976 72.2927 45.4142 73.263 45.536C73.9422 46.1693 74.9853 46.2424 75.3492 46.2424C76.2224 46.2424 78.2844 46.0475 79.2547 45.4386C83.7424 49.8715 89.7098 51.4547 95.1678 50.4074L94.9495 51.0407C104.337 50.1151 110.45 42.808 111.906 36.9137L112.391 37.1085C115.156 29.6553 114.429 20.4972 109.65 13.6529ZM111.008 34.9895L110.547 34.7946C110.111 37.1572 109.092 39.5929 107.539 41.7363C107.078 40.5672 106.448 39.8121 105.283 39.0327C105.186 39.1545 105.065 39.325 104.968 39.4468C104.046 38.7161 103.003 38.2289 102.009 37.9367C103.901 39.0571 105.405 41.2005 105.768 43.831C105.016 44.6104 104.192 45.3168 103.294 45.9501C103.173 44.8784 102.906 43.9772 102.518 43.2221C102.348 43.3195 102.13 43.4657 101.887 43.6118C101.596 42.467 100.99 41.6876 100.699 41.371L100.213 41.6633C99.704 40.8351 99.0248 40.1044 98.2485 39.4955C100.019 42.0773 100.577 46.3885 99.0976 48.0935C97.7634 48.5563 96.7688 48.7268 96.3807 48.7755L96.6233 48.0448C95.7015 48.264 94.8039 48.4101 93.8821 48.5075C94.8039 45.9988 94.5614 44.9514 94.5371 44.4399C94.6826 44.4399 94.8282 44.4643 94.9495 44.4643C94.7797 42.735 94.0277 40.9813 93.0574 39.7634C93.5425 41.0543 93.5425 42.5401 93.3727 43.3926C93.0816 43.3682 92.4752 43.2952 92.4752 43.2952C92.4024 44.0015 91.8687 45.4873 91.0682 46.6077C91.0682 46.6077 91.3108 46.6808 91.6747 46.7538C91.1895 47.4602 90.6558 48.0204 90.0979 48.5319C88.1088 48.337 86.3137 47.8012 84.7127 47.0218C85.3919 46.5103 86.0711 46.0231 86.7988 45.1463L85.9741 44.7322C86.9201 43.9041 87.7449 42.7106 88.1573 41.3953L87.6964 41.2248C88.133 40.4698 88.691 38.8622 88.3999 37.4982C88.133 39.4468 85.3919 43.076 82.481 43.8554L83.2572 44.3669C82.4082 44.9027 82.2384 44.9027 81.6804 45.0245C80.7101 44.1964 79.8369 43.2465 79.1091 42.1991C75.6645 37.279 78.1145 31.7987 82.1656 31.7987C83.2572 31.7987 84.0577 32.1154 84.7369 32.6512C87.2112 34.5754 87.2112 37.1572 91.6504 38.8135C94.246 39.7878 97.1084 39.7391 99.6555 38.3994C102.081 37.0842 103.634 34.9164 103.804 34.5267C101.257 36.4265 98.5882 36.8162 97.6421 36.8406C98.006 37.4008 97.9575 37.3034 98.0545 37.4739C95.7257 38.0828 93.3727 37.8636 91.7474 37.1572C87.4781 35.2818 86.7503 30.654 86.9444 29.0464L86.4835 29.3143C86.435 27.2196 87.1142 25.7095 87.7206 24.1994C88.6424 21.8124 89.0063 19.1575 87.0414 16.4052C87.7449 19.7177 87.2112 21.715 86.4592 23.4443C85.5132 25.5877 84.2518 27.3171 84.6156 30.5809C83.8394 30.2399 83.0389 30.0938 82.1899 30.0938C76.0041 30.0938 73.6996 38.302 78.066 43.831C76.9502 44.1233 74.8397 44.4156 74.5486 43.9528C74.5244 43.9285 74.5244 43.6605 74.5001 43.5144C73.9907 43.5631 72.8263 43.4657 72.7293 43.2221C72.705 43.149 72.6808 42.7593 72.6808 42.7593C71.9773 42.7837 71.3223 42.4183 71.2738 42.126C70.9585 39.5929 70.0852 38.3751 74.5244 37.4008C74.6214 36.5483 74.6699 35.4766 72.608 33.1871L72.2684 33.5037C71.4922 32.5538 69.5515 30.0694 68.2901 28.1208L67.805 28.5106C66.9317 27.4389 66.0827 25.539 65.5975 23.2982C64.8455 19.8152 65.1609 16.4052 66.2039 13.6772C67.1985 11.0954 68.9693 8.90328 71.5649 7.75851C69.6728 7.24702 66.1312 9.90191 65.1609 11.8992C64.8455 11.339 64.6029 10.7544 64.4089 10.1455C66.0099 7.83158 68.7995 6.51631 71.007 6.4676C70.1095 5.63946 68.0718 5.7856 66.3252 6.39453C66.6648 4.49469 66.3252 2.81407 68.1688 2.61921C69.3817 2.47307 71.2981 2.47307 73.3115 2.44871C73.4085 2.76535 73.9907 2.93585 74.4759 3.13071C74.5729 3.15506 74.6457 3.17942 74.6942 3.17942C74.9853 3.17942 74.961 2.78971 74.767 2.42436C75.1308 2.42436 75.519 2.42436 75.8828 2.4C76.1497 3.27685 76.0526 3.42299 76.4165 3.42299C76.7561 3.42299 76.6591 3.27685 76.9502 2.37564C77.3383 2.37564 77.7264 2.35129 78.0903 2.35129C77.8477 2.741 77.7992 3.17942 78.1145 3.17942C78.1631 3.17942 78.2358 3.15506 78.3329 3.13071C78.8908 2.91149 79.5943 2.71664 79.5215 2.32693C81.2438 2.32693 82.9176 2.37564 84.6399 2.5705C85.5132 2.66792 86.0711 3.13071 86.3379 4.29983C86.6048 5.37154 87.2355 5.83432 88.2543 6.10224C88.2543 5.88303 88.1815 5.51768 88.1573 5.44461C99.3644 5.44461 105.162 10.4865 108.073 14.7002C111.881 20.3267 113.046 28.0234 111.008 34.9895Z" fill="#006455"/>
<path d="M76.3924 5.37104H76.441C76.5865 5.37104 76.6835 4.95698 76.7078 4.78648C76.7321 4.59163 76.5622 4.51855 76.4167 4.51855C76.2469 4.51855 76.0771 4.61598 76.1256 4.78648C76.1256 4.98134 76.2469 5.37104 76.3924 5.37104Z" fill="#006455"/>
<path d="M75.8108 9.92625C76.587 10.2429 75.6409 11.0223 74.5979 11.0223C74.3795 11.0223 74.2097 10.9492 74.0157 10.9005C73.9914 11.0223 73.9429 11.0954 74.0642 11.1928C74.2825 11.3877 74.5493 11.4607 74.8404 11.4607C75.2286 11.4607 75.6652 11.3146 76.0533 11.1197C76.2231 11.0223 76.3202 10.9736 76.4172 10.9736C76.5142 10.9736 76.6113 11.0223 76.7811 11.1197C77.1692 11.2902 77.5816 11.4364 77.9697 11.4364C78.2608 11.4364 78.5276 11.3633 78.746 11.1684C78.8672 11.071 78.843 10.9979 78.7945 10.8762C78.5761 10.9492 78.3578 10.9979 78.1395 10.9979C77.1207 10.9979 76.2474 10.2429 76.9994 9.92625C77.2177 9.82882 77.2662 9.80446 77.2905 9.78011C77.3633 9.70704 77.4118 9.48782 77.2662 9.29297C76.9751 9.3904 76.684 9.43911 76.3929 9.43911C76.1018 9.43911 75.835 9.3904 75.5197 9.29297C75.3741 9.48782 75.4226 9.73139 75.4954 9.78011C75.5439 9.78011 75.5924 9.82882 75.8108 9.92625Z" fill="#006455"/>
<path d="M74.7915 4.8846C74.8401 4.93332 74.8886 4.95767 74.9128 4.95767C75.0341 4.95767 75.1069 4.7141 75.0826 4.47054C75.0584 4.22697 74.9614 3.9834 74.7673 3.9834C74.7188 3.9834 74.6703 3.9834 74.6217 4.00776C74.0638 4.30004 74.5005 4.59232 74.7915 4.8846Z" fill="#006455"/>
<path d="M72.851 3.88541C72.8753 3.88541 72.9238 3.88541 72.9481 3.88541C73.2149 3.88541 73.1906 3.64184 73.0208 3.39827C72.851 3.1547 72.5599 2.91113 72.2931 2.91113C72.1718 2.91113 72.0748 2.95985 71.9777 3.08163C71.4926 3.73927 72.2688 3.78798 72.851 3.88541Z" fill="#006455"/>
<path d="M67.4652 3.95829C67.5622 3.98264 67.6835 4.007 67.8048 4.03136C67.5865 4.29928 67.4167 4.66464 67.3682 5.05435C68.1929 4.83513 69.2845 4.71335 70.3034 4.66464C69.9152 4.03136 68.4355 2.69173 67.4652 3.95829Z" fill="#006455"/>
<path d="M77.8962 4.93326C77.9447 4.93326 77.969 4.9089 78.0175 4.86019C78.3086 4.56791 78.7452 4.27562 78.1631 3.98334C78.1145 3.95898 78.066 3.95898 78.0175 3.95898C77.8234 3.95898 77.7264 4.20255 77.7021 4.44612C77.7021 4.68969 77.7749 4.93326 77.8962 4.93326Z" fill="#006455"/>
<path d="M85.0054 4.03178C85.1267 4.00742 85.248 3.95871 85.345 3.95871C84.3989 2.71651 82.9435 4.00742 82.5068 4.6407C83.5257 4.68942 84.6173 4.8112 85.442 5.03041C85.3935 4.66506 85.2237 4.29971 85.0054 4.03178Z" fill="#006455"/>
<path d="M79.8852 3.88633C79.9095 3.88633 79.9337 3.88633 79.9822 3.88633C80.5644 3.7889 81.3407 3.76454 80.8555 3.05819C80.7585 2.93641 80.6615 2.8877 80.5402 2.8877C80.2733 2.8877 79.9822 3.13126 79.8124 3.37483C79.6426 3.64276 79.6184 3.88633 79.8852 3.88633Z" fill="#006455"/>
<path d="M80.8076 9.12305C82.2873 10.5357 83.8641 12.8984 84.1795 15.6994C84.5191 15.4802 84.8587 15.2366 85.174 14.9687C85.1255 14.238 84.5433 12.9714 83.7186 11.7779C82.8695 10.5601 81.7779 9.43969 80.8076 9.12305Z" fill="#006455"/>
<path d="M81.8252 6.54096C83.7173 6.58968 86.6525 7.66138 88.4233 10.2188C88.6659 9.43943 88.8115 8.6113 88.8357 7.75881C87.356 6.32175 83.2079 5.25005 81.8252 6.54096Z" fill="#006455"/>
<path d="M81.2441 7.83173C83.6457 8.87907 85.6833 11.1443 86.5324 13.6043C86.969 13.0928 87.3329 12.557 87.6482 11.9724C86.7022 9.97513 83.1363 7.32023 81.2441 7.83173Z" fill="#006455"/>
<path d="M80.8571 5.25C80.76 5.25 80.6873 5.25 80.5902 5.25C77.9219 5.25 77.2184 7.27162 78.1644 7.80747C78.0189 7.29598 78.0674 6.85755 78.6011 6.39477C78.6011 6.71141 78.8437 6.88191 79.0862 6.88191C79.3288 6.88191 79.5957 6.71141 79.5714 6.37042C79.5471 6.17556 79.4259 6.00506 79.2318 5.95635C79.3046 5.93199 79.5471 5.81021 79.6684 5.81021C79.6927 5.81021 79.7169 5.81021 79.7169 5.83456C80.1051 6.17556 80.0808 6.73577 79.7412 7.07676C79.5714 7.27162 79.3046 7.36905 79.0377 7.36905C78.8437 7.36905 78.6253 7.29598 78.4555 7.17419C78.4555 7.41776 78.7709 7.71004 79.2318 7.71004C79.5714 7.71004 79.9838 7.53955 80.3719 7.07676C80.8085 6.58963 80.9541 5.88328 80.8571 5.25Z" fill="#006455"/>
<path d="M72.5107 16.7217C72.8989 18.0613 76.0524 19.474 76.4163 19.474H76.4405C76.4405 19.474 76.4405 19.474 76.4648 19.474C76.8286 19.474 79.9822 18.0613 80.3703 16.7217C79.1089 17.5498 77.7747 17.9639 76.4648 17.9639C75.0821 17.9395 73.7479 17.5255 72.5107 16.7217Z" fill="#006455"/>
<path d="M73.6034 7.70999C74.0643 7.70999 74.3797 7.4177 74.3797 7.17414C74.2099 7.29592 74.0158 7.36899 73.7975 7.36899C73.5306 7.36899 73.2638 7.27156 73.094 7.07671C72.7786 6.73571 72.7544 6.1755 73.1183 5.83451C73.1183 5.83451 73.1425 5.81015 73.1668 5.81015H73.191C73.191 5.81015 73.191 5.81015 73.2153 5.81015H73.2395C73.2881 5.81015 73.3366 5.83451 73.3851 5.85886H73.4093C73.4579 5.88322 73.5064 5.90758 73.5549 5.90758C73.5792 5.90758 73.5791 5.90758 73.5791 5.93193C73.3851 5.98065 73.2638 6.15115 73.2395 6.346C73.2395 6.44343 73.2395 6.5165 73.2638 6.56521C73.2881 6.61393 73.3366 6.687 73.3608 6.73571C73.4093 6.78443 73.4579 6.80878 73.5306 6.83314C73.5792 6.8575 73.6519 6.8575 73.7247 6.8575C73.9673 6.8575 74.2099 6.71135 74.2099 6.37036C74.6708 6.78443 74.7678 7.14978 74.695 7.5882C74.695 7.66127 74.6708 7.70999 74.6465 7.78306C74.695 7.7587 74.7678 7.70999 74.8163 7.66127C74.9618 7.51513 75.0346 7.34463 75.0589 7.14978C75.1317 6.346 74.2584 5.22559 72.245 5.22559C72.1722 5.22559 72.0752 5.22559 71.9781 5.22559C71.8811 5.85886 72.0267 6.54086 72.439 7.05235C72.8514 7.56384 73.2638 7.70999 73.6034 7.70999Z" fill="#006455"/>
<path d="M2.14302 8.39816L3.37137 9.65777L4.57359 8.34568V10.6287H6.03715V5.27539L3.37137 8.16199L0.65332 5.27539V10.6287H2.14302V8.39816Z" fill="#05282D"/>
<path d="M26.5547 10.8126C28.0705 10.8126 29.2205 9.65792 29.2205 8.10966C29.2205 6.58763 28.0705 5.51172 26.5547 5.51172C25.0911 5.51172 23.915 6.58763 23.915 8.10966C23.915 9.65792 25.065 10.8126 26.5547 10.8126ZM26.5547 6.92878C27.2603 6.92878 27.7569 7.42737 27.7569 8.1359C27.7569 8.87067 27.2603 9.34302 26.5547 9.34302C25.8752 9.34302 25.3525 8.84443 25.3525 8.1359C25.3525 7.45361 25.8752 6.92878 26.5547 6.92878Z" fill="#05282D"/>
<path d="M15.3931 10.8127C16.726 10.8127 17.7975 9.89422 17.9805 8.63462H16.5169C16.3078 9.13321 15.9158 9.36939 15.3931 9.36939C14.6613 9.36939 14.1647 8.84455 14.1647 8.13602C14.1647 7.45374 14.6613 6.9289 15.3931 6.9289C15.9419 6.9289 16.3078 7.16508 16.5169 7.63743H17.9805C17.7975 6.37782 16.726 5.53809 15.3931 5.53809C13.8773 5.53809 12.7012 6.614 12.7012 8.13602C12.7273 9.65805 13.8773 10.8127 15.3931 10.8127Z" fill="#05282D"/>
<path d="M34.2368 9.18547C34.2368 8.55567 33.8709 8.1358 33.3482 7.97835C33.6096 7.89962 33.8187 7.79466 33.8971 7.66345C34.1061 7.45351 34.1061 7.16485 34.1061 6.95492C34.1061 6.03646 33.296 5.69531 32.4596 5.69531H30.0029V10.655H32.3812C33.5312 10.6288 34.2368 10.1039 34.2368 9.18547ZM31.4142 6.74498H32.2244C32.538 6.74498 32.7471 6.87619 32.7471 7.24358C32.7471 7.55848 32.538 7.71593 32.2244 7.71593H31.4142V6.74498ZM31.4142 9.5791V8.58191H32.2767C32.5903 8.58191 32.8255 8.73936 32.8255 9.08051C32.8255 9.44789 32.6164 9.5791 32.2767 9.5791H31.4142Z" fill="#05282D"/>
<path d="M9.51269 10.8126C11.0024 10.8126 12.1785 9.65792 12.1785 8.10966C12.1785 6.58763 11.0024 5.51172 9.51269 5.51172C8.02299 5.51172 6.87305 6.58763 6.87305 8.10966C6.87305 9.65792 8.02299 10.8126 9.51269 10.8126ZM9.51269 6.92878C10.2183 6.92878 10.7149 7.42737 10.7149 8.1359C10.7149 8.87067 10.2183 9.34302 9.51269 9.34302C8.80705 9.34302 8.31048 8.84443 8.31048 8.1359C8.33661 7.45361 8.80705 6.92878 9.51269 6.92878Z" fill="#05282D"/>
<path d="M27.3633 31.8583C32.7733 31.8583 36.9549 28.0008 36.9549 22.49C36.9549 16.9268 32.7733 13.043 27.3633 13.043C22.0056 13.043 17.7979 16.9268 17.7979 22.49C17.7979 28.0008 22.0056 31.8583 27.3633 31.8583ZM27.3633 18.1339C29.9507 18.1339 31.6756 19.9183 31.6756 22.49C31.6756 25.0355 29.9507 26.8199 27.3633 26.8199C24.8543 26.8199 23.0771 25.0355 23.0771 22.49C23.0771 19.9183 24.8282 18.1339 27.3633 18.1339Z" fill="#05282D"/>
<path d="M20.2807 8.34561L22.084 10.6286H23.8612L21.7966 7.97822L23.7828 5.66895H22.2147L20.2807 7.92574V5.66895H18.791V10.6286H20.2807V8.34561Z" fill="#05282D"/>
<path d="M55.7981 10.6295H57.314V5.43359L54.0471 8.08402V5.66977H52.5312V10.8919L55.7981 8.16274V10.6295Z" fill="#05282D"/>
<path d="M48.2205 13.0693C42.8628 13.0693 38.6289 16.9531 38.6289 22.5164C38.6289 28.0272 42.8628 31.8847 48.2205 31.8847C53.6305 31.8847 57.8121 28.0272 57.8121 22.5164C57.7859 16.9269 53.6305 13.0693 48.2205 13.0693ZM48.2205 26.8463C45.6854 26.8463 43.9082 25.0618 43.9082 22.5164C43.9082 19.9184 45.6854 18.1602 48.2205 18.1602C50.8079 18.1602 52.5328 19.9447 52.5328 22.5164C52.5066 25.0356 50.7817 26.8463 48.2205 26.8463Z" fill="#05282D"/>
<path d="M55.041 5.59031C55.9035 5.59031 56.5307 5.30165 56.6091 4.46191H55.4069V4.56688C55.4069 4.80306 55.3023 4.93427 55.041 4.93427C54.8058 4.93427 54.6751 4.77682 54.6751 4.56688C54.6751 4.56688 54.6751 4.48816 54.7012 4.46191H53.499C53.5774 5.30165 54.2047 5.59031 55.041 5.59031Z" fill="#05282D"/>
<path d="M49.9173 10.6295H51.407V5.43359L48.1401 8.08402V5.66977H46.6504V10.8919L49.9173 8.16274V10.6295Z" fill="#05282D"/>
<path d="M42.4973 8.34561L44.2483 10.6286H46.0517L43.9608 7.97822L45.9732 5.66895H44.4051L42.4973 7.92574V5.66895H40.9814V10.6286H42.4973V8.34561Z" fill="#05282D"/>
<path d="M37.5806 10.8127C38.9135 10.8127 39.985 9.89422 40.1941 8.63462H38.6783C38.4953 9.13321 38.0772 9.36939 37.5545 9.36939C36.8227 9.36939 36.3522 8.84455 36.3522 8.13602C36.3522 7.45374 36.8227 6.9289 37.5545 6.9289C38.1033 6.9289 38.4953 7.16508 38.6783 7.63743H40.168C39.9589 6.37782 38.8873 5.53809 37.5545 5.53809C36.0648 5.53809 34.8887 6.614 34.8887 8.13602C34.9148 9.65805 36.0909 10.8127 37.5806 10.8127Z" fill="#05282D"/>
<path d="M58.4641 34.1152H53.9166L49.2384 39.9409V34.1152H45.1875V47.3149H49.2384V41.358L53.603 47.3149H58.5687L53.1848 40.3345L58.4641 34.1152Z" fill="#05282D"/>
<path d="M0.679688 47.3149H4.75676V37.6316H9.09519V47.3149H13.1723V34.1152H0.679688V47.3149Z" fill="#05282D"/>
<path d="M12.8846 21.9129V21.8342C14.7141 21.2307 15.6288 20.076 15.6288 18.2916C15.6027 14.539 11.8915 13.0957 8.31096 13.0957C4.36456 13.0957 1.01927 15.0376 0.418162 19.0263L5.25316 19.0526C5.77586 17.7143 6.89967 17.1632 8.36323 17.1632C9.56545 17.1632 10.6631 17.7667 10.6631 19.0788C10.6631 20.4959 9.74839 20.9158 7.8144 20.9158H6.50764L6.48151 23.8286H8.25869C9.95747 23.8286 10.8722 24.3272 10.8722 25.7705C10.8722 26.9776 9.8268 27.7124 8.25869 27.7124C6.4031 27.7124 5.30543 26.7677 5.04408 25.1144H0C0.601107 29.8117 3.68505 31.8586 8.23256 31.8586C11.996 31.8586 15.9685 30.389 15.9685 26.1379C15.9685 23.9336 14.7141 22.4378 12.8846 21.9129Z" fill="#05282D"/>
<path d="M36.9553 34.1152H31.2578V47.3149H35.2826V43.9559H37.3996C41.0846 43.9559 42.7573 41.8828 42.7573 39.0487C42.7573 35.8734 40.6664 34.1152 36.9553 34.1152ZM38.445 40.2033C38.3143 40.387 38.1313 40.5445 37.8961 40.6232C37.5825 40.7806 37.1905 40.8331 36.7723 40.8331H35.2826V37.2905H36.7985C37.0337 37.2905 37.2428 37.3167 37.4257 37.3692C37.87 37.4742 38.2359 37.6841 38.4711 37.999C38.4972 38.0515 38.5234 38.104 38.5756 38.1302C38.6279 38.2352 38.6802 38.3402 38.7063 38.4451C38.7586 38.6288 38.7847 38.8125 38.7847 38.9962C38.7847 39.521 38.654 39.9147 38.445 40.2033Z" fill="#05282D"/>
<path d="M22.1098 33.1182L14.792 47.2887H18.8691L19.5486 45.8192H24.7495L25.4551 47.2887H29.5845L22.1098 33.1182ZM23.6779 43.5362H20.6985H20.6463L22.0837 40.4396H22.136H22.2144H22.2666L23.7302 43.5362H23.6779Z" fill="#05282D"/>
</svg>
